# xmcd CD database file
#
# Track frame offsets:
#	150
#	20985
#	44107
#	56057
#	74169
#	95378
#	100190
#	114292
#	130589
#	145258
#	164981
#	182975
#	201274
#	207348
#	216002
#	219118
#	230030
#	248552
#	267309
#	284420
#	303583
#
# Disc length: 4368 seconds
#
# Revision: 0
# Processed by: cddbd v1.5.1PL2 Copyright (c) Steve Scherf et al.
# Submitted via: CDex 1.51
#
DISCID=55110e15
DTITLE=Daydream Cycle - Underwater Kite
DYEAR=2005
DGENRE=OPM
TTITLE0=All I Remember
TTITLE1=Roses and Cadillacs
TTITLE2=Over The Windshield
TTITLE3=Midnight Eyes
TTITLE4=Avenue
TTITLE5=Sky Interchange
TTITLE6=Daisy Tongues
TTITLE7=Winter's Gone
TTITLE8=Underwater Kite
TTITLE9=In The Corners Of Mine
TTITLE10=When The World Stops
TTITLE11=Girl I Know
TTITLE12=Our Mind Wanders
TTITLE13=Nightowls
TTITLE14=Otla Xas
TTITLE15=Nothing With You
TTITLE16=A Beautiful Morning
TTITLE17=Luna
TTITLE18=Lousy Judge Of Character
TTITLE19=Daisy Tongues (Squid9 remix)
TTITLE20=Roses and Cadillacs (Squid9 remix)
EXTD=YEAR: 2005
EXTT0=
EXTT1=
EXTT2=
EXTT3=
EXTT4=
EXTT5=
EXTT6=
EXTT7=
EXTT8=
EXTT9=
EXTT10=
EXTT11=
EXTT12=
EXTT13=
EXTT14=
EXTT15=
EXTT16=
EXTT17=
EXTT18=
EXTT19=
EXTT20=
PLAYORDER=
